<mxfile host="app.diagrams.net" modified="2023-04-16T20:46:03.948Z" agent="Mozilla/5.0 (Windows NT 10.0; Win64; x64) AppleWebKit/537.36 (KHTML, like Gecko) Chrome/112.0.0.0 Safari/537.36" etag="MF4fqNzCH6EFypMdDXWW" version="21.1.8" type="device">
  <diagram id="C5RBs43oDa-KdzZeNtuy" name="Page-1">
    <mxGraphModel dx="1259" dy="679" grid="1" gridSize="10" guides="1" tooltips="1" connect="1" arrows="1" fold="1" page="1" pageScale="1" pageWidth="827" pageHeight="1169" math="0" shadow="0">
      <root>
        <mxCell id="WIyWlLk6GJQsqaUBKTNV-0" />
        <mxCell id="WIyWlLk6GJQsqaUBKTNV-1" parent="WIyWlLk6GJQsqaUBKTNV-0" />
        <mxCell id="7dl4ZBKmWh82pCycQbR0-2" value="" style="edgeStyle=orthogonalEdgeStyle;rounded=0;orthogonalLoop=1;jettySize=auto;html=1;" edge="1" parent="WIyWlLk6GJQsqaUBKTNV-1" source="7dl4ZBKmWh82pCycQbR0-0" target="7dl4ZBKmWh82pCycQbR0-1">
          <mxGeometry relative="1" as="geometry" />
        </mxCell>
        <mxCell id="7dl4ZBKmWh82pCycQbR0-0" value="Receive input for secret message&lt;br&gt;(user or file)" style="rounded=1;whiteSpace=wrap;html=1;absoluteArcSize=1;arcSize=14;strokeWidth=2;" vertex="1" parent="WIyWlLk6GJQsqaUBKTNV-1">
          <mxGeometry x="10" y="240" width="120" height="55" as="geometry" />
        </mxCell>
        <mxCell id="7dl4ZBKmWh82pCycQbR0-4" value="" style="edgeStyle=orthogonalEdgeStyle;rounded=0;orthogonalLoop=1;jettySize=auto;html=1;" edge="1" parent="WIyWlLk6GJQsqaUBKTNV-1" source="7dl4ZBKmWh82pCycQbR0-1" target="7dl4ZBKmWh82pCycQbR0-3">
          <mxGeometry relative="1" as="geometry" />
        </mxCell>
        <mxCell id="7dl4ZBKmWh82pCycQbR0-1" value="Symmetrically encrypt message" style="whiteSpace=wrap;html=1;rounded=1;arcSize=14;strokeWidth=2;" vertex="1" parent="WIyWlLk6GJQsqaUBKTNV-1">
          <mxGeometry x="160" y="240" width="120" height="55" as="geometry" />
        </mxCell>
        <mxCell id="7dl4ZBKmWh82pCycQbR0-6" value="No" style="edgeStyle=orthogonalEdgeStyle;rounded=0;orthogonalLoop=1;jettySize=auto;html=1;" edge="1" parent="WIyWlLk6GJQsqaUBKTNV-1" source="7dl4ZBKmWh82pCycQbR0-3" target="7dl4ZBKmWh82pCycQbR0-5">
          <mxGeometry relative="1" as="geometry" />
        </mxCell>
        <mxCell id="7dl4ZBKmWh82pCycQbR0-8" value="Yes" style="edgeStyle=orthogonalEdgeStyle;rounded=0;orthogonalLoop=1;jettySize=auto;html=1;" edge="1" parent="WIyWlLk6GJQsqaUBKTNV-1" source="7dl4ZBKmWh82pCycQbR0-3" target="7dl4ZBKmWh82pCycQbR0-7">
          <mxGeometry relative="1" as="geometry" />
        </mxCell>
        <mxCell id="7dl4ZBKmWh82pCycQbR0-3" value="Encrypted length&lt;br&gt;&amp;nbsp;&amp;gt; 80 bytes?" style="rhombus;whiteSpace=wrap;html=1;rounded=1;arcSize=14;strokeWidth=2;" vertex="1" parent="WIyWlLk6GJQsqaUBKTNV-1">
          <mxGeometry x="330" y="227.5" width="140" height="80" as="geometry" />
        </mxCell>
        <mxCell id="7dl4ZBKmWh82pCycQbR0-12" value="" style="edgeStyle=orthogonalEdgeStyle;rounded=0;orthogonalLoop=1;jettySize=auto;html=1;" edge="1" parent="WIyWlLk6GJQsqaUBKTNV-1" source="7dl4ZBKmWh82pCycQbR0-5" target="7dl4ZBKmWh82pCycQbR0-11">
          <mxGeometry relative="1" as="geometry" />
        </mxCell>
        <mxCell id="7dl4ZBKmWh82pCycQbR0-5" value="Create ICMP packets with content" style="whiteSpace=wrap;html=1;rounded=1;arcSize=14;strokeWidth=2;" vertex="1" parent="WIyWlLk6GJQsqaUBKTNV-1">
          <mxGeometry x="520" y="237.5" width="120" height="60" as="geometry" />
        </mxCell>
        <mxCell id="7dl4ZBKmWh82pCycQbR0-10" value="" style="edgeStyle=orthogonalEdgeStyle;rounded=0;orthogonalLoop=1;jettySize=auto;html=1;entryX=0.5;entryY=1;entryDx=0;entryDy=0;" edge="1" parent="WIyWlLk6GJQsqaUBKTNV-1" source="7dl4ZBKmWh82pCycQbR0-7" target="7dl4ZBKmWh82pCycQbR0-5">
          <mxGeometry relative="1" as="geometry">
            <mxPoint x="580" y="310" as="targetPoint" />
            <Array as="points">
              <mxPoint x="580" y="428" />
            </Array>
          </mxGeometry>
        </mxCell>
        <mxCell id="7dl4ZBKmWh82pCycQbR0-7" value="Evenly divide content into messages of length &amp;lt; 80 bytes" style="whiteSpace=wrap;html=1;rounded=1;arcSize=14;strokeWidth=2;" vertex="1" parent="WIyWlLk6GJQsqaUBKTNV-1">
          <mxGeometry x="340" y="397.5" width="120" height="60" as="geometry" />
        </mxCell>
        <mxCell id="7dl4ZBKmWh82pCycQbR0-11" value="Send packets to appropriate destination server" style="whiteSpace=wrap;html=1;rounded=1;arcSize=14;strokeWidth=2;" vertex="1" parent="WIyWlLk6GJQsqaUBKTNV-1">
          <mxGeometry x="680" y="237.5" width="120" height="60" as="geometry" />
        </mxCell>
        <mxCell id="7dl4ZBKmWh82pCycQbR0-15" value="" style="edgeStyle=orthogonalEdgeStyle;rounded=0;orthogonalLoop=1;jettySize=auto;html=1;" edge="1" parent="WIyWlLk6GJQsqaUBKTNV-1" source="7dl4ZBKmWh82pCycQbR0-13">
          <mxGeometry relative="1" as="geometry">
            <mxPoint x="740" y="237.5" as="targetPoint" />
          </mxGeometry>
        </mxCell>
        <mxCell id="7dl4ZBKmWh82pCycQbR0-13" value="Receive input for destination address&lt;br&gt;(user or file)" style="rounded=1;whiteSpace=wrap;html=1;absoluteArcSize=1;arcSize=14;strokeWidth=2;" vertex="1" parent="WIyWlLk6GJQsqaUBKTNV-1">
          <mxGeometry x="520" y="150" width="120" height="55" as="geometry" />
        </mxCell>
      </root>
    </mxGraphModel>
  </diagram>
</mxfile>
